<svg id="visual" viewBox="0 0 2047 740" width="2047" height="740" xmlns="http://www.w3.org/2000/svg" xmlns:xlink="http://www.w3.org/1999/xlink" version="1.1"><path d="M0 82L2047 97L2047 0L0 0Z" fill="#0d2c0d"></path><path d="M0 97L2047 134L2047 95L0 80Z" fill="#0d320d"></path><path d="M0 156L2047 201L2047 132L0 95Z" fill="#0d390d"></path><path d="M0 297L2047 349L2047 199L0 154Z" fill="#154b15"></path><path d="M0 319L2047 408L2047 347L0 295Z" fill="#1f621f"></path><path d="M0 349L2047 445L2047 406L0 317Z" fill="#236b23"></path><path d="M0 393L2047 504L2047 443L0 347Z" fill="#236b23"></path><path d="M0 445L2047 526L2047 502L0 391Z" fill="#1f621f"></path><path d="M0 489L2047 578L2047 524L0 443Z" fill="#154b15"></path><path d="M0 563L2047 652L2047 576L0 487Z" fill="#0d390d"></path><path d="M0 704L2047 719L2047 650L0 561Z" fill="#0d320d"></path><path d="M0 741L2047 741L2047 717L0 702Z" fill="#0d2c0d"></path></svg>